<svg id="Слой_1" data-name="Слой 1" xmlns="http://www.w3.org/2000/svg" viewBox="0 0 202.43 50"><defs><style>.cls-1{fill:#44b7b4;}.cls-2{fill:#3a4d60;}</style></defs><title>01 Логотип</title><path class="cls-1" d="M28.27,33.52a8.38,8.38,0,1,1,0-10.81h6.28a13.79,13.79,0,1,0,0,10.81Z"/><path class="cls-2" d="M38.36,0V28.12a16.49,16.49,0,1,1-2.7-9v-8a21.87,21.87,0,1,0,8.11,17.08h0V4A33,33,0,0,0,38.36,0Z"/><path class="cls-2" d="M55.16,41.29h-.59l1.73-4.72h.59l1.73,4.72H58l-1.41-4h0Zm.23-1.84H57.8V40H55.39Z"/><path class="cls-2" d="M62.85,36.57v.51H60.57v4.21H60V36.57Z"/><path class="cls-2" d="M64.38,41.29V36.57h2.85v.51H65v1.59h2.13v.51H65v1.6h2.31v.51Z"/><path class="cls-2" d="M68.91,41.29V36.57h.57v2.1H72v-2.1h.57v4.72H72V39.18H69.48v2.11Z"/><path class="cls-2" d="M74.1,37.08v-.51h3.53v.51H76.15v4.21h-.57V37.08Z"/><path class="cls-2" d="M82.77,38.05H82.2a1.45,1.45,0,0,0-.18-.44,1.11,1.11,0,0,0-.3-.31,1.14,1.14,0,0,0-.4-.19,1.33,1.33,0,0,0-.45-.07,1.36,1.36,0,0,0-.77.22,1.47,1.47,0,0,0-.56.64,2.75,2.75,0,0,0,0,2.06,1.47,1.47,0,0,0,.56.64,1.36,1.36,0,0,0,.77.22,1.33,1.33,0,0,0,.45-.07,1.14,1.14,0,0,0,.4-.19,1.11,1.11,0,0,0,.3-.31,1.45,1.45,0,0,0,.18-.44h.57a1.87,1.87,0,0,1-.24.65,1.79,1.79,0,0,1-.42.49,1.94,1.94,0,0,1-.57.3,2.09,2.09,0,0,1-.67.1,1.94,1.94,0,0,1-1.81-1.13,3.22,3.22,0,0,1,0-2.58,1.94,1.94,0,0,1,1.81-1.13,2.09,2.09,0,0,1,.67.1,1.94,1.94,0,0,1,.57.3,1.79,1.79,0,0,1,.42.49A1.87,1.87,0,0,1,82.77,38.05Z"/><path class="cls-2" d="M84.08,37.08v-.51h3.54v.51H86.13v4.21h-.57V37.08Z"/><path class="cls-2" d="M89.15,41.29V36.57H90.8a1.74,1.74,0,0,1,.81.17,1.18,1.18,0,0,1,.48.46,1.26,1.26,0,0,1,.15.62,1.1,1.1,0,0,1-.1.51,1,1,0,0,1-.29.31,1.24,1.24,0,0,1-.37.17v0a.93.93,0,0,1,.43.15,1.07,1.07,0,0,1,.37.39,1.29,1.29,0,0,1,.15.64,1.34,1.34,0,0,1-.16.63,1.13,1.13,0,0,1-.51.45,2.17,2.17,0,0,1-.91.17Zm.57-2.65h1.06a1,1,0,0,0,.46-.1.84.84,0,0,0,.34-.28.78.78,0,0,0,.12-.44.69.69,0,0,0-.22-.52.9.9,0,0,0-.68-.22H89.72Zm0,2.14h1.13a1.16,1.16,0,0,0,.8-.22.7.7,0,0,0,.23-.52.89.89,0,0,0-.12-.45.91.91,0,0,0-.35-.32,1,1,0,0,0-.53-.13H89.72Z"/><path class="cls-2" d="M98,38.93a2.86,2.86,0,0,1-.27,1.29,2,2,0,0,1-2.88.84,2.09,2.09,0,0,1-.74-.84,3.22,3.22,0,0,1,0-2.58,2.09,2.09,0,0,1,.74-.84,2,2,0,0,1,2.88.84A2.86,2.86,0,0,1,98,38.93Zm-.55,0a2.42,2.42,0,0,0-.2-1,1.52,1.52,0,0,0-.55-.64,1.48,1.48,0,0,0-1.55,0,1.45,1.45,0,0,0-.55.64,2.63,2.63,0,0,0,0,2.06,1.45,1.45,0,0,0,.55.64,1.48,1.48,0,0,0,1.55,0,1.52,1.52,0,0,0,.55-.64A2.42,2.42,0,0,0,97.44,38.93Z"/><path class="cls-2" d="M102.07,41.29V36.57h.57v2.1h2.52v-2.1h.57v4.72h-.57V39.18h-2.52v2.11Z"/><path class="cls-2" d="M107.52,41.29V36.57h2.84v.51h-2.27v1.59h2.13v.51h-2.13v1.6h2.31v.51Z"/><path class="cls-2" d="M111.64,42.43V40.78h.3a1.31,1.31,0,0,0,.3-.4,3.32,3.32,0,0,0,.24-.7,8.92,8.92,0,0,0,.13-1.12l.1-2h2.8v4.21h.54v1.64h-.54V41.29h-3.33v1.14Zm1-1.65H115v-3.7h-1.74l-.07,1.48a8,8,0,0,1-.1.94,4.37,4.37,0,0,1-.17.73A2.57,2.57,0,0,1,112.62,40.78Z"/><path class="cls-2" d="M117.56,41.29V36.57h1.65a1.81,1.81,0,0,1,.82.17,1.1,1.1,0,0,1,.47.46,1.17,1.17,0,0,1,.16.62,1.1,1.1,0,0,1-.11.51.84.84,0,0,1-.28.31,1.19,1.19,0,0,1-.38.17v0a1,1,0,0,1,.44.15,1.07,1.07,0,0,1,.37.39,1.41,1.41,0,0,1,.14.64,1.23,1.23,0,0,1-.16.63,1.08,1.08,0,0,1-.51.45,2.09,2.09,0,0,1-.9.17Zm.58-2.65h1a1,1,0,0,0,.47-.1.75.75,0,0,0,.33-.28.79.79,0,0,0,.13-.44.73.73,0,0,0-.22-.52.91.91,0,0,0-.69-.22h-1.07Zm0,2.14h1.13a1.11,1.11,0,0,0,.79-.22.67.67,0,0,0,.24-.52.89.89,0,0,0-.12-.45.91.91,0,0,0-.35-.32,1,1,0,0,0-.53-.13h-1.16Z"/><path class="cls-2" d="M122.43,36.57H123v3.71H123l2.58-3.71h.55v4.72h-.57v-3.7h0L123,41.29h-.55Z"/><path class="cls-2" d="M127.57,41.29l1.52-2.46-1.4-2.26h.69l1.23,2.09h1.72l1.23-2.09h.69l-1.41,2.27,1.53,2.45h-.66l-1.28-2.09H129.5l-1.29,2.09Zm3.18-4.72v4.72h-.57V36.57Z"/><path class="cls-2" d="M134.76,36.57h.56v3.71h.05L138,36.57h.55v4.72h-.57v-3.7h-.05l-2.57,3.7h-.55Z"/><path class="cls-2" d="M140.29,36.57H141l1.61,3.92h0l1.6-3.92h.68v4.72h-.53V37.71h0l-1.47,3.58h-.51l-1.48-3.58h0v3.58h-.54Z"/><path class="cls-2" d="M150.68,38.93a2.86,2.86,0,0,1-.27,1.29,1.91,1.91,0,0,1-1.81,1.13,2,2,0,0,1-1.07-.29,2.09,2.09,0,0,1-.74-.84,3.22,3.22,0,0,1,0-2.58,2.09,2.09,0,0,1,.74-.84,2,2,0,0,1,1.07-.29,1.91,1.91,0,0,1,1.81,1.13A2.86,2.86,0,0,1,150.68,38.93Zm-.55,0a2.42,2.42,0,0,0-.2-1,1.52,1.52,0,0,0-.55-.64,1.48,1.48,0,0,0-1.55,0,1.45,1.45,0,0,0-.55.64,2.63,2.63,0,0,0,0,2.06,1.45,1.45,0,0,0,.55.64,1.48,1.48,0,0,0,1.55,0,1.52,1.52,0,0,0,.55-.64A2.42,2.42,0,0,0,150.13,38.93Z"/><path class="cls-2" d="M156.08,38.05h-.57a1.23,1.23,0,0,0-.17-.44,1.3,1.3,0,0,0-.31-.31,1.18,1.18,0,0,0-.39-.19,1.41,1.41,0,0,0-.45-.07,1.39,1.39,0,0,0-.78.22,1.52,1.52,0,0,0-.55.64,2.75,2.75,0,0,0,0,2.06,1.52,1.52,0,0,0,.55.64,1.39,1.39,0,0,0,.78.22,1.41,1.41,0,0,0,.45-.07,1.18,1.18,0,0,0,.39-.19,1.3,1.3,0,0,0,.31-.31,1.23,1.23,0,0,0,.17-.44h.57a1.86,1.86,0,0,1-.23.65,2,2,0,0,1-.42.49,1.94,1.94,0,0,1-.57.3,2.21,2.21,0,0,1-1.75-.19,2,2,0,0,1-.73-.84,3.22,3.22,0,0,1,0-2.58,2,2,0,0,1,.73-.84,2.21,2.21,0,0,1,1.75-.19,1.94,1.94,0,0,1,.57.3,2,2,0,0,1,.42.49A1.86,1.86,0,0,1,156.08,38.05Z"/><path class="cls-2" d="M157.4,37.08v-.51h3.53v.51h-1.48v4.21h-.57V37.08Z"/><path class="cls-2" d="M162.47,36.57H163v3.71h0l2.58-3.71h.55v4.72h-.57v-3.7h0L163,41.29h-.55Z"/><path class="cls-2" d="M57.46,14.1h3.65a7,7,0,0,1,5.37,2,6.67,6.67,0,0,1,1.93,4.77,6.88,6.88,0,0,1-7.32,7.15c-.3,0-.88,0-1.74,0s-1.49,0-1.87,0l-2.81.08s-.06-.15-.06-.34,0-.36.06-.36a3.47,3.47,0,0,0,.8-.13c.36-.09.56-.2.62-.33A8.3,8.3,0,0,0,56.23,25V17a7.22,7.22,0,0,0-.14-1.73c-.05-.15-.24-.28-.6-.38a3.24,3.24,0,0,0-.84-.15c-.06,0-.08-.1-.08-.31s0-.33.08-.38C55.58,14.08,56.51,14.1,57.46,14.1Zm1.16,2.7v8.27a3.56,3.56,0,0,0,.23,1.57,5.29,5.29,0,0,0,2.58.33q4.27,0,4.28-6.16a6.82,6.82,0,0,0-1.15-4,3.76,3.76,0,0,0-3.28-1.65h-.11c-1.35,0-2.11.12-2.28.34A2.37,2.37,0,0,0,58.62,16.8Z"/><path class="cls-2" d="M77.56,14.06a6.67,6.67,0,0,1,1.15.11,6.31,6.31,0,0,1,1.24.39,5.28,5.28,0,0,1,1.16.68,3.1,3.1,0,0,1,.82,1,3.38,3.38,0,0,1,.31,1.48,3.58,3.58,0,0,1-.73,2.15,4.07,4.07,0,0,1-1.8,1.44c-.11,0-.14.11-.08.21A24.83,24.83,0,0,0,82,25.16a9.33,9.33,0,0,0,1.6,1.55,2.67,2.67,0,0,0,1.57.64.68.68,0,0,1,.08.34.92.92,0,0,1-.08.38,4,4,0,0,1-.66,0,7,7,0,0,1-2-.25A4.6,4.6,0,0,1,81,27.11a7.92,7.92,0,0,1-1.06-1A8.4,8.4,0,0,1,79.08,25c-.2-.28-.42-.61-.68-1l-.58-.88c-.13-.2-.28-.42-.45-.64a3.73,3.73,0,0,0-.43-.51,1.11,1.11,0,0,0-.35-.23,1.4,1.4,0,0,0-.51-.06.31.31,0,0,0-.34.35v3a6.67,6.67,0,0,0,.17,1.79c0,.17.28.31.71.42a4.67,4.67,0,0,0,.94.15c.06,0,.08.12.08.36a1.11,1.11,0,0,1,0,.36c-1.55-.08-2.55-.13-3-.13s-.8,0-1.27,0L72.2,28l-.42,0a.62.62,0,0,1-.07-.38c0-.22,0-.34.07-.34a3.62,3.62,0,0,0,.81-.13c.36-.09.56-.2.62-.33A7.91,7.91,0,0,0,73.34,25V17a7.85,7.85,0,0,0-.13-1.73c0-.11-.25-.23-.62-.35a3.08,3.08,0,0,0-.81-.18c-.06,0-.09-.1-.09-.31s0-.34.09-.38l2.8.06,1.47,0C76.63,14.06,77.14,14.06,77.56,14.06Zm-.34,1a3.35,3.35,0,0,0-1.22.15c-.16.07-.24.8-.26,2.2v2.42a.58.58,0,0,0,.36.61,2.64,2.64,0,0,0,1,.15h.55a1.81,1.81,0,0,0,1.41-.74A2.89,2.89,0,0,0,79.67,18C79.67,16.07,78.85,15.11,77.22,15.11Z"/><path class="cls-2" d="M91.18,14.12c.62,0,1.71,0,3.27-.07S97.2,14,98,14c0,.42.17,1,.34,1.76s.26,1.17.27,1.24a.65.65,0,0,1-.44.11q-.24,0-.3-.15a2.65,2.65,0,0,0-2.7-1.88h-1.1c-1,0-1.57.09-1.6.27A8.33,8.33,0,0,0,92.34,17v3.32q0,.12.93.12h1.18a5.54,5.54,0,0,0,1.46-.1c.15-.07.27-.32.36-.74,0-.21.08-.39.12-.53s.13-.15.34-.15a.56.56,0,0,1,.4.11v4a.66.66,0,0,1-.4.08c-.18,0-.29-.05-.34-.17a5.07,5.07,0,0,0-.26-.84,1.8,1.8,0,0,0-.15-.3l-.18-.12a5.85,5.85,0,0,0-1.94-.17c-1,0-1.52.06-1.52.17V25a5.9,5.9,0,0,0,.19,1.71q.1.27,1.44.27h.78a5.59,5.59,0,0,0,2.51-.44,2.44,2.44,0,0,0,.76-.74,4.35,4.35,0,0,0,.65-1.29q0-.12.3-.12a.93.93,0,0,1,.59.12c0,.13-.14.42-.31.87l-.36,1c-.09.23-.18.52-.28.86a6,6,0,0,0-.19.82L94.93,28c-1.77,0-3,0-3.73,0l-2.8.08c-.05,0-.07-.15-.07-.34s0-.36.07-.36a3.47,3.47,0,0,0,.8-.13c.35-.09.55-.2.61-.33A7.58,7.58,0,0,0,90,25V17a6.59,6.59,0,0,0-.15-1.73c0-.15-.24-.28-.59-.38a3.23,3.23,0,0,0-.85-.15c-.05,0-.08-.1-.08-.31a.6.6,0,0,1,.08-.38C89.3,14.09,90.24,14.12,91.18,14.12Z"/><path class="cls-2" d="M110.5,14.06l4.43,11.06c.22.56.43,1.07.64,1.54a1,1,0,0,0,.67.5,2.75,2.75,0,0,0,.81.19s.08.13.08.38a.7.7,0,0,1,0,.32l-2.66-.13-2.75.13a.66.66,0,0,1-.08-.39c0-.2,0-.31.08-.31a2.83,2.83,0,0,0,.7-.12c.3-.09.47-.19.53-.3a.6.6,0,0,0,.06-.27,4.79,4.79,0,0,0-.4-1.46l-.74-2a.2.2,0,0,0-.15-.09c-.45,0-1.05,0-1.81,0s-1.56,0-2.41.06q-.12,0-.12.09l-.81,2a6.43,6.43,0,0,0-.4,1.37.47.47,0,0,0,.24.43,2.09,2.09,0,0,0,.66.23,3.57,3.57,0,0,0,.64.1s.07.12.07.3a1.75,1.75,0,0,1,0,.4l-1-.06c-.59,0-1.07-.07-1.43-.07s-.8,0-1.3.06l-1.07.07a.49.49,0,0,1-.08-.32c0-.25,0-.38,0-.38a3,3,0,0,0,.81-.18,1.21,1.21,0,0,0,.71-.41,9.3,9.3,0,0,0,.8-1.64l3.93-9.5a4.42,4.42,0,0,1,.78-1.52.53.53,0,0,1,.36-.15A.34.34,0,0,1,110.5,14.06ZM108,21.91c.49,0,1,.06,1.52.06s1.07,0,1.73-.06l0-.09-1.6-4.22-1.73,4.22C107.93,21.88,107.94,21.91,108,21.91Z"/><path class="cls-2" d="M123.7,14.14l2.07-.13q.2.6.87,2.19l1.65,3.88c.66,1.53,1.18,2.79,1.58,3.77,0,0,0,0,.06,0a.05.05,0,0,0,.06-.06c1.24-3,2.22-5.41,3-7.32l.76-2.45c.42,0,1,.06,1.73.06.55,0,1.38,0,2.51-.11a.66.66,0,0,1,.06.34c0,.24,0,.36-.08.36h0a1.71,1.71,0,0,0-1,.34q-.32.22-.27,1.14.07,1.88.29,8.72a5.76,5.76,0,0,0,.34,1.94c.06.12.25.24.59.35a3,3,0,0,0,.72.15c.06,0,.08.13.08.38a1,1,0,0,1,0,.32L136,27.92l-.89,0-1,.06-.89.05a.44.44,0,0,1-.09-.32c0-.25,0-.38.09-.38a2.46,2.46,0,0,0,.67-.13,1.26,1.26,0,0,0,.59-.31,1.18,1.18,0,0,0,.22-.74V25l-.22-6.42c0-.87-.14-1.3-.25-1.3s-.08,0-.1.12l-4,9.84c-.24.53-.5.8-.8.8a.68.68,0,0,1-.21,0l-4.73-11.36c-.1,3.51-.21,6.64-.33,9.42a2.43,2.43,0,0,0,.06.65c.07.15.35.3.84.44a4.71,4.71,0,0,0,1,.21s.08.13.08.38a1,1,0,0,1,0,.32l-2.66-.13c-.38,0-.89,0-1.51.07l-1.15.06a.48.48,0,0,1-.09-.34q0-.36.09-.36a4.19,4.19,0,0,0,1-.21c.48-.14.76-.32.83-.55a4.09,4.09,0,0,0,.23-1.41c0-1.07.07-2.33.12-3.79s.09-2.7.12-3.72,0-1.67,0-1.92a2.2,2.2,0,0,0-.06-.6c0-.11-.28-.21-.71-.31a4.68,4.68,0,0,0-.91-.15q-.09,0-.09-.36a.45.45,0,0,1,.09-.32l1.08.08C122.9,14.12,123.34,14.14,123.7,14.14Z"/><path class="cls-2" d="M160.89,24.15a12.43,12.43,0,0,1-.32,1.63,3.8,3.8,0,0,1-.48,1.45,11.43,11.43,0,0,1-4.9.88,6.35,6.35,0,0,1-4.75-2,6.81,6.81,0,0,1-2-4.88,7.28,7.28,0,0,1,2-5.14,6.49,6.49,0,0,1,4.94-2.14,23.21,23.21,0,0,1,5,.57,5.83,5.83,0,0,1,.13,1.38c0,.91.06,1.48.06,1.7s-.17.32-.5.32a.64.64,0,0,1-.3-.09,3.09,3.09,0,0,0-.31-.78,5.21,5.21,0,0,0-.66-.91,3.32,3.32,0,0,0-1.31-.83,5.59,5.59,0,0,0-2-.33,3.66,3.66,0,0,0-3.22,1.71,7.16,7.16,0,0,0-1.15,4.1,7.66,7.66,0,0,0,1.29,4.5,4.21,4.21,0,0,0,3.67,1.85,3.84,3.84,0,0,0,3-1.18,2.83,2.83,0,0,0,.5-.79c.15-.33.26-.61.34-.84s.13-.33.15-.33C160.56,24,160.83,24,160.89,24.15Z"/><path class="cls-2" d="M165.79,17a6,6,0,0,0-.17-1.77c-.05-.12-.25-.22-.59-.33a2.63,2.63,0,0,0-.76-.16c-.05,0-.08-.1-.08-.32a.86.86,0,0,1,0-.38l1.17.07c.71,0,1.26.06,1.64.06l2.7-.13a1.16,1.16,0,0,1,.06.34c0,.24,0,.36-.08.36a3.59,3.59,0,0,0-.76.17c-.38.11-.59.22-.61.32a7.38,7.38,0,0,0-.17,1.85V25a7.68,7.68,0,0,0,.19,1.9c0,.1.22.2.58.31a3.38,3.38,0,0,0,.73.15s.08.14.08.41a.85.85,0,0,1,0,.29L167,27.92l-.89,0-1,.06-.9.05a.39.39,0,0,1-.08-.29c0-.27,0-.41.08-.41a3.74,3.74,0,0,0,.79-.14c.36-.1.56-.21.6-.32a7,7,0,0,0,.17-1.77Z"/><path class="cls-2" d="M177.23,14.09c1,0,1.73.05,2.33.05s1.39,0,2.35-.05l2.3-.08a7,7,0,0,0,1.45-.21l.4,3.23a.81.81,0,0,1-.57.15c-.11,0-.18,0-.21-.1a3,3,0,0,0-.78-1.58,2.34,2.34,0,0,0-1.52-.41c-1.31,0-2,.12-2,.36a7.66,7.66,0,0,0-.19,2v7.62a7.52,7.52,0,0,0,.19,1.84c0,.1.21.2.57.31a3.67,3.67,0,0,0,.74.15c.06,0,.09.13.09.38a1.44,1.44,0,0,1,0,.34l-.82-.06-1-.07-.88,0c-.38,0-.9,0-1.57.07l-1.23.08a.46.46,0,0,1-.09-.34c0-.25,0-.38.09-.38a3.74,3.74,0,0,0,.79-.14c.36-.1.56-.21.6-.32a6.74,6.74,0,0,0,.17-1.75V17.5a5.73,5.73,0,0,0-.19-2.05q-.16-.36-2-.36a2.36,2.36,0,0,0-1.52.41,3.17,3.17,0,0,0-.8,1.55c0,.09-.08.13-.21.13a.72.72,0,0,1-.55-.17l.4-3.21a7.11,7.11,0,0,0,1.46.21Z"/><path class="cls-2" d="M192,14.14c.26,0,1.23,0,2.92-.13a.92.92,0,0,1,0,.38c0,.2,0,.3-.07.3a2.27,2.27,0,0,0-.76.15c-.29.1-.43.24-.43.44a1.42,1.42,0,0,0,.19.55l2.24,4.09c.07.08.14.06.21,0,.61-.9,1.19-1.83,1.75-2.78a5.6,5.6,0,0,0,.85-1.82c0-.15-.13-.29-.39-.41a2.47,2.47,0,0,0-1-.18c-.05,0-.08-.1-.08-.3a.79.79,0,0,1,.06-.38c1.42.09,2.27.13,2.54.13l.87,0,.8,0,.65-.06a2.09,2.09,0,0,1,0,.34c0,.23,0,.34-.09.34a2.8,2.8,0,0,0-.87.19,1.77,1.77,0,0,0-.81.51c-.41.6-1.14,1.76-2.2,3.47a16.21,16.21,0,0,0-1.58,2.84V25a7.72,7.72,0,0,0,.17,1.9c0,.1.22.21.58.33a3,3,0,0,0,.7.18q.09,0,.09.33a1.44,1.44,0,0,1,0,.34l-.81-.06-1-.07-.86,0c-.38,0-.9,0-1.55.07l-1.22.08a.52.52,0,0,1-.08-.34q0-.33.06-.33a3,3,0,0,0,.78-.17c.35-.12.55-.23.59-.34a7.21,7.21,0,0,0,.17-1.86V21.91a1.24,1.24,0,0,0-.13-.41c-.1-.21-.25-.52-.48-.93s-.42-.78-.59-1.08L192.47,18c-.38-.67-.66-1.17-.85-1.49a4.18,4.18,0,0,0-1.09-1.46,2,2,0,0,0-.63-.26,2.37,2.37,0,0,0-.6-.12s-.07-.07-.07-.21a.62.62,0,0,1,0-.3C189.6,14.16,190.53,14.14,192,14.14Z"/></svg>