<svg id="Слой_1" data-name="Слой 1" xmlns="http://www.w3.org/2000/svg" viewBox="0 0 43.83 59.41"><defs><style>.cls-1{fill:#44b7b4;}.cls-2{fill:#3a4d60;}</style></defs><title>09 Домик Гео</title><circle class="cls-1" cx="21.91" cy="21.91" r="21.91"/><path class="cls-2" d="M39.47,22c0,9.7-17.56,37.44-17.56,37.44S4.35,31.67,4.35,22a17.56,17.56,0,0,1,35.12,0Z"/><path class="cls-1" d="M13.7,31.41a.46.46,0,0,0,.47.5h5.69V27.24a.66.66,0,0,1,.66-.76h2.36c.89,0,.83.76.83.76v4.65h5.57a.58.58,0,0,0,.6-.63V22.67l-7.85-7-8.33,7Z"/><path class="cls-1" d="M10.63,22s.7,1.3,2.25,0l9.22-7.8L30.74,22c1.79,1.29,2.46,0,2.46,0L22.1,11.91Z"/><polygon class="cls-1" points="30.54 14.2 28.31 14.2 28.32 16.89 30.54 18.77 30.54 14.2"/></svg>