<svg id="Capa_1" data-name="Capa 1" xmlns="http://www.w3.org/2000/svg" viewBox="0 0 20 20"><defs><style>.cls-1{fill:#3a4d60;}</style></defs><title>16 Инстаграм</title><path class="cls-1" d="M17.07,0H2.92A2.92,2.92,0,0,0,0,2.92V17.07A2.94,2.94,0,0,0,2.92,20H17.07A2.93,2.93,0,0,0,20,17.07h0V2.92A2.94,2.94,0,0,0,17.07,0ZM10,15.24A5.28,5.28,0,1,1,15.31,10h0A5.28,5.28,0,0,1,10,15.24Zm5.86-9.38A1.76,1.76,0,1,1,17.63,4.1h0A1.76,1.76,0,0,1,15.9,5.86Z"/><path class="cls-1" d="M10,6.91a3.07,3.07,0,1,0,.05,0Z"/></svg>