<svg id="Capa_1" data-name="Capa 1" xmlns="http://www.w3.org/2000/svg" viewBox="0 0 70.03 80"><defs><style>.cls-1{fill:#fff;}</style></defs><title>19 О компании</title><path class="cls-1" d="M35,24.94a20.05,20.05,0,0,1,17,9.4H46.12a15.41,15.41,0,1,0,0,21.29H52A20,20,0,1,1,35,24.94m0-2A22,22,0,1,0,55.28,53.63H45.23a13.4,13.4,0,1,1,0-17.29H55.28A22.07,22.07,0,0,0,35,22.94Z"/><path class="cls-1" d="M63.38,3.64A50.81,50.81,0,0,1,68,7.26V45.12a33.06,33.06,0,1,1-13-26.34v6.15A28.35,28.35,0,1,0,63.38,45V3.64M61.38,0V45a26.39,26.39,0,1,1-4.32-14.45V17.81A35,35,0,1,0,70,45.13h0V6.36A52.5,52.5,0,0,0,61.38,0Z"/></svg>