<svg id="Слой_3" data-name="Слой 3" xmlns="http://www.w3.org/2000/svg" viewBox="0 0 62.78 79.52"><defs><style>.cls-1{fill:#fff;}</style></defs><title>21 Продажа</title><path class="cls-1" d="M52.82,46.4a15.57,15.57,0,0,0,4.59-26.29,14.88,14.88,0,1,0-28.82-5.22,15,15,0,0,0,.56,4,14.87,14.87,0,0,0-3.58,2.61,14.56,14.56,0,0,0-2.13,17.91L0,62.87,4.53,67.4,8.1,63.83l2.69,2.68L14.7,62.6,12,59.92l1.28-1.28L16,61.33l3.91-3.91L17.2,54.73,27.9,44a14.59,14.59,0,0,0,12.23,1.75,15.21,15.21,0,0,0,2,.84V73.37l5,6.15,5.7-6.11v-4.6l-2.53-2.93,2.85-3.31-2.85-3.3,2.53-2.94ZM30.59,14.89a12.89,12.89,0,1,1,25.16,3.95,15.53,15.53,0,0,0-15.92-.75l.08-.28A14.64,14.64,0,0,0,31,18.1,13.2,13.2,0,0,1,30.59,14.89Zm-2.21,27-.69-.52L14.37,54.73l2.69,2.69L16,58.5l-2.69-2.69L9.18,59.92l2.69,2.68-1.08,1.09L8.1,61,4.53,64.57l-1.7-1.7L26,39.68,25.54,39A12.59,12.59,0,0,1,37.81,19.4a15.38,15.38,0,0,0-2.62,2.48,9.69,9.69,0,0,0-.54,19.26,16,16,0,0,0,3.08,3.13A12.64,12.64,0,0,1,28.38,41.93Zm5.2-17.72a15.48,15.48,0,0,0-.42,14.5A7.84,7.84,0,0,1,30.51,37a7.7,7.7,0,0,1,3.07-12.77ZM50.82,45V55.59l-3.18,3.68,2.86,3.3-2.86,3.31,3.18,3.68v3.06l-3.6,3.86-3.1-3.82V45.14l-.73-.21a13.61,13.61,0,0,1,3.78-26.68A13.52,13.52,0,0,1,55,20.72a12.9,12.9,0,0,1-3.85,4.54,5,5,0,1,0,1.11,3.13A5.19,5.19,0,0,0,52,27.07a15,15,0,0,0,4.52-5,13.58,13.58,0,0,1-5,22.73Zm-.6-16.59a3,3,0,0,1-5.77,1.35,14.86,14.86,0,0,0,5.75-1.57C50.2,28.24,50.22,28.31,50.22,28.39Zm-6-.64a3,3,0,0,1,5.22-1.42A12.8,12.8,0,0,1,44.19,27.75Z"/></svg>