<svg id="Слой_2" data-name="Слой 2" xmlns="http://www.w3.org/2000/svg" viewBox="0 0 79.91 79.31"><defs><style>.cls-1{fill:#fff;}</style></defs><title>22 Коммерческая</title><path class="cls-1" d="M79.17,47.52A5.46,5.46,0,0,0,75.82,45a5.53,5.53,0,0,0-4.19.55l-3.95,2.29V25.45h-2V48.94L55.12,55a5.45,5.45,0,0,0-3-2.09l-20-5.38a15.69,15.69,0,0,0-2.7-.45V25.45h-2V47.14a14.21,14.21,0,0,0-5.73,1.65l-7.29,3.94v-5H0V79.31H14.34V72.65l5,3a4.11,4.11,0,0,0,2.18.62H39.22a4.11,4.11,0,0,0,2.08-.56l35.85-20.7a5.52,5.52,0,0,0,2-7.54ZM12.34,77.31H2V49.76H12.34ZM77.79,51.19a3.46,3.46,0,0,1-1.64,2.14L40.3,74a2.16,2.16,0,0,1-1.08.29H21.5A2.21,2.21,0,0,1,20.36,74l-5.64-3.46-.38.62V55l8.24-4.45a12.2,12.2,0,0,1,9-1L51.6,54.88a3.52,3.52,0,0,1,2.48,4.31,3.53,3.53,0,0,1-4.31,2.49L35,57.72l-.51,1.93,14.76,4a5.33,5.33,0,0,0,1.42.19,5.49,5.49,0,0,0,5.31-7l16.64-9.6a3.48,3.48,0,0,1,2.67-.36,3.54,3.54,0,0,1,2.14,1.64A3.47,3.47,0,0,1,77.79,51.19Z"/><polygon class="cls-1" points="47.52 2.61 74.35 25.15 75.64 23.62 47.52 0 19.4 23.62 20.68 25.15 47.52 2.61"/><path class="cls-1" d="M49.41,34.26a7.56,7.56,0,1,0,0-15.12h-8v18h-2.3v2h2.3v6h2v-6h7.86v-2H43.37V34.26Zm-6-13.12h6a5.56,5.56,0,1,1,0,11.12h-6Z"/></svg>