<svg id="Слой_1" data-name="Слой 1" xmlns="http://www.w3.org/2000/svg" viewBox="0 0 11.41 17.09"><defs><style>.cls-1{fill:#44b7b4;}</style></defs><title>28 Гео адрес</title><path class="cls-1" d="M5.71,17.09l-.63-.92C4.56,15.4,0,8.59,0,5.71a5.71,5.71,0,1,1,11.41,0c0,2.88-4.56,9.69-5.08,10.46Zm0-15.59A4.22,4.22,0,0,0,1.5,5.71c0,1.78,2.64,6.24,4.21,8.68,1.57-2.44,4.2-6.9,4.2-8.68A4.21,4.21,0,0,0,5.71,1.5Z"/><path class="cls-1" d="M5.71,8.08A2.57,2.57,0,1,1,8.27,5.51,2.57,2.57,0,0,1,5.71,8.08Zm0-3.63A1.07,1.07,0,1,0,6.77,5.51,1.07,1.07,0,0,0,5.71,4.45Z"/></svg>