<svg id="Capa_1" data-name="Capa 1" xmlns="http://www.w3.org/2000/svg" viewBox="0 0 18.94 22"><defs><style>.cls-1{fill:#fff;}</style></defs><title>38 Скачать PDF</title><path class="cls-1" d="M12.14,0H1A1,1,0,0,0,0,1V21a1,1,0,0,0,1,1H18a1,1,0,0,0,1-1V7.76a1,1,0,0,0-1-1H13.1a1,1,0,0,1-1-1ZM2.86,13.05H11a.94.94,0,0,1,1,.95h0a1,1,0,0,1-1,1H2.86a1,1,0,0,1-1-1h0A1,1,0,0,1,2.86,13.05Zm14.07,4.62h0a1,1,0,0,1-1,1H2.86a1,1,0,0,1-1-1h0a1,1,0,0,1,1-1H16A1,1,0,0,1,16.93,17.67Z"/><rect class="cls-1" x="13.7" width="5.25" height="5.25" rx="0.78"/></svg>