<svg id="_1" data-name=" 1" xmlns="http://www.w3.org/2000/svg" viewBox="0 0 92.65 30"><defs><style>.cls-1{fill:#01549a;}.cls-1,.cls-2{fill-rule:evenodd;}.cls-2{fill:#f7a707;}</style></defs><title>44 Visa</title><polygon class="cls-1" points="32.67 29.56 37.36 0.51 44.86 0.51 40.17 29.56 32.67 29.56"/><path class="cls-1" d="M67.38,1.22A18.63,18.63,0,0,0,60.66,0C53.25,0,48,3.94,48,9.6c0,4.18,3.72,6.49,6.57,7.89s3.93,2.34,3.93,3.6c0,1.95-2.33,2.83-4.5,2.83a15.06,15.06,0,0,1-7.08-1.5L46,22,44.86,28.5A22.79,22.79,0,0,0,53.23,30c7.88,0,13-3.9,13.07-9.92,0-3.33-2-5.83-6.3-7.9-2.63-1.35-4.23-2.25-4.22-3.62s1.37-2.49,4.31-2.49A13.39,13.39,0,0,1,65.7,7.18l.67.35Z"/><path class="cls-1" d="M77.38,19.27l3-8.13c0,.08.63-1.68,1-2.77l.49,2.5s1.5,7,1.76,8.4ZM86.64.54H80.85A3.73,3.73,0,0,0,76.9,3L65.76,29.58h7.89s1.29-3.59,1.5-4.37h9.61c.24,1,.92,4.37.92,4.37h7Z"/><path class="cls-1" d="M26.37.54,19,20.35l-.78-4A22.35,22.35,0,0,0,7.84,4.12l6.72,25.5H22.5L34.32.54Z"/><path class="cls-2" d="M12.21.51H.1l-.1.6C9.42,3.52,15.64,9.34,18.24,16.32L15.61,3A3.15,3.15,0,0,0,12.21.51Z"/></svg>