<svg id="Layer_1" data-name="Layer 1" xmlns="http://www.w3.org/2000/svg" xmlns:xlink="http://www.w3.org/1999/xlink" viewBox="0 0 105.99 30"><defs><style>.cls-1{fill:#4db45e;}.cls-1,.cls-2{fill-rule:evenodd;}.cls-2{fill:url(#Безымянный_градиент);}</style><linearGradient id="Безымянный_градиент" x1="74.76" y1="485.16" x2="105.99" y2="485.16" gradientTransform="translate(0 -479)" gradientUnits="userSpaceOnUse"><stop offset="0.3" stop-color="#00b4e6"/><stop offset="1" stop-color="#088ccb"/></linearGradient></defs><title>45 Mir</title><g id="g5"><path id="path7" class="cls-1" d="M28.5,0h0a5.53,5.53,0,0,0-5.24,3.93c-1,3.57-3.76,13.61-3.87,13.89H18.6S15.69,7.61,14.67,3.93A5.54,5.54,0,0,0,9.43,0H0V30H9.43V12.18h.78L15.72,30h6.55l5.51-17.8h.72V30h9.43V0Z"/></g><g id="g9"><path id="path11" class="cls-1" d="M63,0a5.29,5.29,0,0,0-4,3.15L52.27,17.82h-.79V0H42V30h9a5.44,5.44,0,0,0,4.2-3.15l6.55-14.67h.78V30H72V0Z"/></g><g id="g13"><path id="path15" class="cls-1" d="M76.11,13.62V30H85.5V20.43H95.71a10.17,10.17,0,0,0,9.63-6.81Z"/></g><g id="g17"><path id="path24" class="cls-2" d="M95.76,0h-21A15,15,0,0,0,85.63,11.79h0a15.1,15.1,0,0,0,4,.53h16.2a10.68,10.68,0,0,0,.21-2.1A10.21,10.21,0,0,0,95.77,0Z"/></g></svg>