<svg id="Layer_1" data-name="Layer 1" xmlns="http://www.w3.org/2000/svg" xmlns:xlink="http://www.w3.org/1999/xlink" viewBox="0 0 53.33 40"><defs><style>.cls-1,.cls-2,.cls-3,.cls-4,.cls-5{fill-rule:evenodd;}.cls-1{fill:url(#GradientFill_1);}.cls-2{fill:url(#GradientFill_1-2);}.cls-3{fill:url(#GradientFill_1-3);}.cls-4{fill:url(#GradientFill_2);}.cls-5{fill:url(#GradientFill_3);}</style><linearGradient id="GradientFill_1" x1="36.89" y1="22.57" x2="53.38" y2="22.57" gradientUnits="userSpaceOnUse"><stop offset="0" stop-color="#457843"/><stop offset="1" stop-color="#83bb5d"/></linearGradient><linearGradient id="GradientFill_1-2" x1="36.89" y1="20" x2="53.38" y2="20" xlink:href="#GradientFill_1"/><linearGradient id="GradientFill_1-3" x1="36.89" y1="17.2" x2="53.38" y2="17.2" xlink:href="#GradientFill_1"/><linearGradient id="GradientFill_2" x1="-0.02" y1="20" x2="16.72" y2="20" gradientUnits="userSpaceOnUse"><stop offset="0" stop-color="#49477e"/><stop offset="1" stop-color="#587fbf"/></linearGradient><linearGradient id="GradientFill_3" x1="18.35" y1="20" x2="34.89" y2="20" gradientUnits="userSpaceOnUse"><stop offset="0" stop-color="#531f20"/><stop offset="1" stop-color="#d04c5f"/></linearGradient></defs><title>46 JCB.sv</title><path class="cls-1" d="M44,20.81H40.15v3.52H44a2.31,2.31,0,0,0,.46,0,1.76,1.76,0,0,0,0-3.43A3.27,3.27,0,0,0,44,20.81Z"/><path class="cls-2" d="M53.33,0H43.56a6.66,6.66,0,0,0-6.67,6.67v6.92h9.43l.66,0c2.13.11,3.7,1.21,3.7,3.11a3.15,3.15,0,0,1-3,3.06v.08c2.16.15,3.82,1.34,3.82,3.22s-1.82,3.33-4.24,3.33H36.89V40h9.78a6.66,6.66,0,0,0,6.66-6.67Z"/><path class="cls-3" d="M40.15,18.83h3.51l.37,0a1.6,1.6,0,0,0,1.34-1.6h0A1.58,1.58,0,0,0,44,15.61l-.38,0h-3.5Z"/><path class="cls-4" d="M16.44,0H6.67A6.67,6.67,0,0,0,0,6.67V23.13a13.38,13.38,0,0,0,5.77,1.5c2.3,0,3.57-1.41,3.57-3.3V13.59h5.73v7.74c0,3-1.85,5.45-8.23,5.45A28.55,28.55,0,0,1,0,26V40H9.78a6.66,6.66,0,0,0,6.66-6.67Z"/><path class="cls-5" d="M34.89,0H25.11a6.67,6.67,0,0,0-6.67,6.67v8.72c1.69-1.45,4.61-2.35,9.36-2.14a30.7,30.7,0,0,1,5.23.8v2.82a12.88,12.88,0,0,0-5-1.47c-3.61-.28-5.77,1.48-5.77,4.6s2.16,4.87,5.77,4.6a13.3,13.3,0,0,0,5-1.47V26a30.7,30.7,0,0,1-5.23.8c-4.75.21-7.67-.69-9.36-2.14V40h9.78a6.67,6.67,0,0,0,6.67-6.67Z"/></svg>