<svg id="Слой_1" data-name="Слой 1" xmlns="http://www.w3.org/2000/svg" viewBox="0 0 18.01 18"><defs><style>.cls-1{fill:#44b7b4;}</style></defs><title>11 Телефон номер </title><path class="cls-1" d="M16.84,18h0A16.84,16.84,0,0,1,0,1.17,1.16,1.16,0,0,1,1.19,0H4.6a1.19,1.19,0,0,1,.85.36,1.15,1.15,0,0,1,.32.83,11,11,0,0,0,.57,3.4,1.16,1.16,0,0,1-.29,1.2L3.24,8.16a15.35,15.35,0,0,0,7,6.81l1.94-3a1.22,1.22,0,0,1,1.19-.28,10.79,10.79,0,0,0,3.42.55h0A1.19,1.19,0,0,1,18,13.4v3.42a1.19,1.19,0,0,1-.36.85A1.18,1.18,0,0,1,16.84,18Zm0-1.54h0Zm-5.11-.88a15.26,15.26,0,0,0,4.75.87v-2.7a12.41,12.41,0,0,1-3.25-.53Zm4.75-2.19h0ZM1.55,1.54a15,15,0,0,0,1,5.16L4.8,4.84a12,12,0,0,1-.56-3.3Zm-.36,0h0Zm3-.36h0Z"/></svg>