<svg id="Capa_1" data-name="Capa 1" xmlns="http://www.w3.org/2000/svg" viewBox="0 0 20 15.01"><defs><style>.cls-1{fill:#3a4d60;}</style></defs><title>17 Ютуб</title><path class="cls-1" d="M19.59,2.35A2.54,2.54,0,0,0,17.82.47,55.28,55.28,0,0,0,10,0,60.1,60.1,0,0,0,2.18.44,2.68,2.68,0,0,0,.41,2.35,30.75,30.75,0,0,0,0,7.5a30.58,30.58,0,0,0,.41,5.15,2.49,2.49,0,0,0,1.77,1.89A52.45,52.45,0,0,0,10,15a55.25,55.25,0,0,0,7.82-.43,2.55,2.55,0,0,0,1.77-1.89A30.93,30.93,0,0,0,20,7.5,29.73,29.73,0,0,0,19.59,2.35ZM8,10.72V4.29L13.2,7.5Z"/></svg>