<svg id="Слой_2" data-name="Слой 2" xmlns="http://www.w3.org/2000/svg" viewBox="0 0 75.3 79"><defs><style>.cls-1{fill:#fff;}</style></defs><title>20 Аренда</title><path class="cls-1" d="M75.3,18.62a4,4,0,0,0-4-4H70.13a4,4,0,0,0-4,4V64.45h3.7l-3.28,5.09L70.72,76l4.16-6.45L71.6,64.45h3.7ZM70.72,72.3l-1.79-2.76,1.79-2.77,1.78,2.77Zm2.58-9.85H68.13V18.62a2,2,0,0,1,2-2H71.3a2,2,0,0,1,2,2Z"/><path class="cls-1" d="M0,0V79H60V10.79L48.86,0ZM49.83,3.73,57,10.67H49.83ZM2,77V2H47.83V12.67H58V77Z"/><rect class="cls-1" x="10.96" y="27.14" width="38.05" height="2"/><rect class="cls-1" x="10.96" y="34.91" width="38.05" height="2"/><rect class="cls-1" x="10.96" y="42.69" width="38.05" height="2"/><rect class="cls-1" x="10.96" y="49.86" width="25.49" height="2"/><rect class="cls-1" x="10.96" y="13.39" width="25.49" height="2"/><rect class="cls-1" x="39.93" y="67.3" width="11.23" height="2"/></svg>