<svg id="Слой_1" data-name="Слой 1" xmlns="http://www.w3.org/2000/svg" viewBox="0 0 17.49 17.17"><defs><style>.cls-1{fill:#44b7b4;}</style></defs><title>30 Скрепка</title><path class="cls-1" d="M8.53,17.17,7.55,16h0l7.34-7.73a4.16,4.16,0,0,0-.07-5.67,3.6,3.6,0,0,0-5.1-.12l-.12.12L2.3,10.34a3,3,0,0,0,0,4.09,2.56,2.56,0,0,0,3.61.1l.11-.1,6.65-7a1.64,1.64,0,0,0,0-2.26,1.37,1.37,0,0,0-1-.44,1.39,1.39,0,0,0-1,.37l-.08.08L4.3,11.86l-1.09-1L9.54,4.14,9.69,4a2.83,2.83,0,0,1,2.06-.77,2.89,2.89,0,0,1,2,.92,3.15,3.15,0,0,1,0,4.31l-6.66,7-.16.16a4.07,4.07,0,0,1-5.73-.16,4.52,4.52,0,0,1,0-6.15L8.54,1.58l.17-.17a5.11,5.11,0,0,1,7.22.17A5.68,5.68,0,0,1,16,9.31Z"/></svg>