<svg id="Слой_1" data-name="Слой 1" xmlns="http://www.w3.org/2000/svg" viewBox="0 0 17.71 17.7"><defs><style>.cls-1{fill:#44b7b4;}</style></defs><title>35 Увеличить</title><path class="cls-1" d="M17.71,16.3l-3.84-3.9A7.79,7.79,0,0,0,7.69,0,7.75,7.75,0,0,0,0,7.79a7.75,7.75,0,0,0,7.69,7.79,7.62,7.62,0,0,0,4.81-1.72l3.79,3.84Zm-10-2.72A5.75,5.75,0,0,1,2,7.79,5.75,5.75,0,0,1,7.69,2a5.75,5.75,0,0,1,5.69,5.79A5.75,5.75,0,0,1,7.69,13.58Z"/><polygon class="cls-1" points="8.69 4.67 6.69 4.67 6.69 6.71 4.7 6.71 4.7 8.71 6.69 8.71 6.69 10.74 8.69 10.74 8.69 8.71 10.68 8.71 10.68 6.71 8.69 6.71 8.69 4.67"/></svg>