<svg id="_1" data-name=" 1" xmlns="http://www.w3.org/2000/svg" viewBox="0 0 66.74 40"><defs><style>.cls-1{fill:#fca412;}.cls-1,.cls-2,.cls-3,.cls-4{fill-rule:evenodd;}.cls-2{fill:#d81e04;}.cls-3{fill:#fefefe;}.cls-4{fill:#192068;}</style></defs><title>43 MasterCard</title><path class="cls-1" d="M33.41,34.81A19.59,19.59,0,0,0,46.74,40a20,20,0,0,0,0-40A19.59,19.59,0,0,0,33.41,5.19,20,20,0,0,0,32,33.44C32.47,33.92,32.93,34.38,33.41,34.81Z"/><path class="cls-1" d="M64,31.15a.61.61,0,0,1,.6-.63h0a.67.67,0,1,1,0,1.33.62.62,0,0,1-.61-.64h0Zm.61.5a.52.52,0,0,0,.52-.5.5.5,0,0,0-.52-.48.48.48,0,0,0-.48.48h0A.53.53,0,0,0,64.58,31.65Zm-.06-.2V31h.13V31h-.13v.11h.09l.08.24h.16l-.13-.28a.12.12,0,0,0,.1-.14h0c0-.06,0-.1-.06-.13a.2.2,0,0,0-.15,0h-.24v.59Z"/><path class="cls-2" d="M39.82,17.89a19.26,19.26,0,0,0-.34-2.13H27.33a20.68,20.68,0,0,1,.55-2.09h11c-.24-.72-.52-1.44-.82-2.14H28.74c.35-.72.74-1.44,1.14-2.12h7a16.42,16.42,0,0,0-1.51-2.1h-4a18.49,18.49,0,0,1,2-2.12A20,20,0,1,0,20.05,40a19.7,19.7,0,0,0,13.33-5.19h0a17.88,17.88,0,0,0,2-2.09h-4c-.54-.68-1.05-1.4-1.52-2.13h7a15.15,15.15,0,0,0,1.17-2.12H28.73a19.59,19.59,0,0,1-.85-2.1h11a17.66,17.66,0,0,0,.58-2.13,19.26,19.26,0,0,0,.34-2.13,19.89,19.89,0,0,0,.11-2.1A20.28,20.28,0,0,0,39.82,17.89Z"/><path class="cls-3" d="M64,24.65a.63.63,0,0,1,.6-.65h0a.64.64,0,0,1,.66.63v0a.67.67,0,0,1-.66.66h0A.65.65,0,0,1,64,24.65Zm.61.48a.48.48,0,0,0,0-1h0a.49.49,0,0,0-.48.48A.48.48,0,0,0,64.58,25.13Zm-.06-.2v-.45h.06v.07h-.06v.1h.09l.08.22h.16l-.13-.26a.17.17,0,0,0,.1-.13c0-.07,0-.13-.06-.17h-.39v.56Z"/><path class="cls-4" d="M26.64,25.79a6.88,6.88,0,0,1-1.62.28c-1,0-1.64-.66-1.64-1.83a6.51,6.51,0,0,1,.07-.76l.13-.79.11-.65.92-5.63h2.07l-.24,1.24h1.33l-.31,2.06H26.13l-.55,3.36a1.93,1.93,0,0,0,0,.34c0,.46.2.63.72.63A3,3,0,0,0,27,24Z"/><path class="cls-4" d="M33.3,25.72a8.53,8.53,0,0,1-2.2.31,3.29,3.29,0,0,1-3.66-2.87,2.75,2.75,0,0,1,0-.81c0-2.84,1.57-4.91,3.77-4.91A2.74,2.74,0,0,1,34.1,20c0,.13,0,.26,0,.39a9.14,9.14,0,0,1-.24,2H29.5a1.31,1.31,0,0,0,0,.28c0,1,.66,1.44,1.88,1.44a5.08,5.08,0,0,0,2.24-.52l-.34,2.07ZM32,20.81V20.4a1,1,0,0,0-.84-1.06h-.2c-.68,0-1.16.51-1.33,1.48Z"/><polygon class="cls-4" points="10.16 25.89 8.04 25.89 9.26 18.09 6.49 25.89 5.01 25.89 4.84 18.13 3.53 25.89 1.44 25.89 3.12 15.76 6.25 15.76 6.32 22.01 8.41 15.76 11.85 15.76 10.16 25.89"/><path class="cls-4" d="M15.34,22.21a2.8,2.8,0,0,0-.41,0c-1.23,0-1.85.48-1.85,1.23a.77.77,0,0,0,.67.86h.11c1,0,1.46-.87,1.48-2.07Zm1.72,3.68H15.21V25A2.52,2.52,0,0,1,13,26,2.1,2.1,0,0,1,11,23.79v0a3.93,3.93,0,0,1,.18-1.07c.34-1.26,1.61-2.05,3.57-2.09a7.69,7.69,0,0,1,1,0A2.1,2.1,0,0,0,15.8,20c0-.55-.44-.72-1.44-.72a5.72,5.72,0,0,0-1.79.28h-.44l.31-1.85a7.9,7.9,0,0,1,2.5-.46c1.86,0,2.86.87,2.86,2.44a8,8,0,0,1-.11,1.62l-.48,2.94-.07.52v.7Z"/><path class="cls-4" d="M43.68,17.72a4.1,4.1,0,0,1,1.92.55l.37-2.2a2.13,2.13,0,0,0-.55-.2l-.85-.24a4.2,4.2,0,0,0-1-.11,4.27,4.27,0,0,0-2.33.48A6.31,6.31,0,0,0,40,17.09h-.28L37.5,18.51l.11-.86H35.34L34,25.89h2.16L37,21.45s.3-.61.44-.81a1.25,1.25,0,0,1,1.21-.52h.16a10.34,10.34,0,0,0-.09,1.57c0,2.67,1.5,4.38,3.84,4.38a7.58,7.58,0,0,0,1.89-.28l.37-2.34A3.87,3.87,0,0,1,43,24c-1.33,0-2-1-2-2.47C40.93,19.29,42.06,17.72,43.68,17.72Z"/><path class="cls-4" d="M61.9,15.76l-.48,2.91a2.2,2.2,0,0,0-2-1.16,3.23,3.23,0,0,0-2.85,1.88h0l-1.33-.83.14-.85H53.08L51.74,26h2.14l.72-4.44s.54-.62.69-.82a1.34,1.34,0,0,1,1-.52,7.79,7.79,0,0,0-.39,2.44c0,2.06,1.07,3.43,2.67,3.43a2.48,2.48,0,0,0,2-.92l-.11.83h2l1.73-10.19Zm-2.66,8.17c-.72,0-1.11-.54-1.11-1.61,0-1.61.69-2.79,1.69-2.79.75,0,1.14.59,1.14,1.62,0,1.65-.67,2.85-1.7,2.85Z"/><path class="cls-4" d="M49.34,22.21h-.41c-1.24,0-1.85.48-1.85,1.23a.77.77,0,0,0,.67.86h.11c1,0,1.44-.87,1.48-2.07Zm1.71,3.68H49.17V25a2.56,2.56,0,0,1-2.27,1,2.09,2.09,0,0,1-2-2.17.34.34,0,0,1,0-.1c0-2,1.46-3.16,3.8-3.16a7.22,7.22,0,0,1,.93,0,2.64,2.64,0,0,0,.11-.56c0-.55-.46-.72-1.48-.72a5.72,5.72,0,0,0-1.79.28h-.41l.3-1.85a8,8,0,0,1,2.51-.46c1.85,0,2.81.87,2.81,2.44a5.5,5.5,0,0,1-.09,1.62l-.45,2.94v.52l-.07.42v.28Z"/><path class="cls-4" d="M21.5,19.4a12.63,12.63,0,0,1,1.62.13l.32-1.92c-.63-.06-1.46-.17-1.94-.17-2.4,0-3.18,1.33-3.18,2.81a2.34,2.34,0,0,0,1.61,2.27c.85.41,1,.48,1,.87s-.45.81-1.33.81a5.93,5.93,0,0,1-2-.33l-.14,1.88h0l.42.06a5.17,5.17,0,0,0,.54.11c.52,0,1,.07,1.24.07,2.4,0,3.4-.94,3.4-2.75A2.36,2.36,0,0,0,21.5,21c-.93-.41-1-.48-1-.85S20.9,19.4,21.5,19.4Z"/><path class="cls-3" d="M46.56,15.41l-.38,2.2a4.21,4.21,0,0,0-1.93-.54c-1.61,0-2.75,1.6-2.75,3.81,0,1.55.76,2.47,2,2.47a4.34,4.34,0,0,0,1.83-.52L45,25.13a7.12,7.12,0,0,1-1.89.31c-2.33,0-3.77-1.68-3.77-4.39,0-3.61,2-6.14,4.84-6.14a4,4,0,0,1,1,.09l.87.21Z"/><path class="cls-3" d="M39.62,16.93h-.21c-.72,0-1.13.34-1.79,1.34L37.84,17h-2l-1.34,8.24H36.7c.79-5,1-5.91,2-5.91h.11A9.13,9.13,0,0,1,39.66,17Z"/><path class="cls-3" d="M27.2,25.13a4.57,4.57,0,0,1-1.55.28A1.58,1.58,0,0,1,23.92,24a1.77,1.77,0,0,1,0-.4,2.66,2.66,0,0,1,.07-.72l.13-.83.11-.65.93-5.63h2.12L27.05,17h1.12l-.28,2H26.84l-.59,3.42a1,1,0,0,0,0,.35c0,.41.21.59.72.59a1.32,1.32,0,0,0,.59-.08Z"/><path class="cls-3" d="M18.92,19.6a2.39,2.39,0,0,0,1.61,2.31c.89.41,1,.54,1,.89s-.38.76-1.23.76a6.3,6.3,0,0,1-1.93-.32l-.31,1.89h.11l.37.07a2.88,2.88,0,0,0,.59.07,7.65,7.65,0,0,0,1.17.06c2.27,0,3.32-.85,3.32-2.74a2.3,2.3,0,0,0-1.51-2.31c-.92-.4-1-.51-1-.88s.37-.65,1.06-.65a13.3,13.3,0,0,1,1.55.09L24,17a11,11,0,0,0-1.9-.17C19.74,16.83,18.84,18.09,18.92,19.6Z"/><path class="cls-3" d="M63,25.24H61l.1-.8a2.55,2.55,0,0,1-2,.89c-1.59,0-2.67-1.33-2.67-3.4,0-2.74,1.62-5.08,3.51-5.08A2.48,2.48,0,0,1,62,18l.48-2.88H64.6L62.94,25.24Zm-3.15-1.93c1,0,1.68-1.16,1.68-2.78,0-1.06-.39-1.61-1.13-1.61-1,0-1.68,1.13-1.68,2.75C58.72,22.76,59.09,23.31,59.85,23.31Z"/><path class="cls-3" d="M33.78,25.07a7,7,0,0,1-2.22.34,3.28,3.28,0,0,1-3.65-2.86,3.1,3.1,0,0,1,0-.86c0-2.81,1.57-4.9,3.73-4.9a2.76,2.76,0,0,1,2.93,2.58c0,.14,0,.27,0,.4a8.06,8.06,0,0,1-.27,2.07H30a1,1,0,0,0,0,.24c0,1,.65,1.44,1.88,1.44A4.59,4.59,0,0,0,34.16,23l-.35,2.07Zm-1.2-4.91v-.41a1,1,0,0,0-.81-1.07h-.21c-.7,0-1.18.51-1.34,1.48Z"/><polygon class="cls-3" points="10.72 25.24 8.58 25.24 9.82 17.44 7.04 25.24 5.56 25.24 5.38 17.51 4.09 25.24 2.09 25.24 3.77 15.11 6.86 15.11 6.97 21.39 9.02 15.11 12.4 15.11 10.72 25.24"/><path class="cls-3" d="M16,21.56h-.48c-1.2,0-1.83.44-1.83,1.33a.73.73,0,0,0,.63.82h.13c.89,0,1.51-.83,1.55-2.07Zm1.57,3.68H15.82v-.87a2.64,2.64,0,0,1-2.26,1,2,2,0,0,1-1.94-2c0-.07,0-.13,0-.19,0-2,1.33-3.2,3.77-3.2h.89a1.79,1.79,0,0,0,.07-.51c0-.56-.37-.76-1.33-.76a7.1,7.1,0,0,0-1.78.2l-.32.11h-.2l.31-1.86a9,9,0,0,1,2.57-.41c1.86,0,2.86.83,2.86,2.4a11.41,11.41,0,0,1-.18,1.65l-.48,2.92-.06.51v.72Z"/><path class="cls-3" d="M50,21.56h-.48c-1.24,0-1.85.44-1.85,1.33a.76.76,0,0,0,.66.83h.13c.86,0,1.5-.83,1.54-2.07Zm1.59,3.68H49.82v-.87a2.64,2.64,0,0,1-2.26,1,2,2,0,0,1-2-2c0-.07,0-.14,0-.2,0-2,1.33-3.2,3.78-3.2h.86a2.3,2.3,0,0,0,.1-.51c0-.56-.38-.76-1.33-.76a7.55,7.55,0,0,0-1.83.2l-.26.11H46.7L47,17.13a9.1,9.1,0,0,1,2.59-.41c1.85,0,2.81.83,2.81,2.4a7.46,7.46,0,0,1-.24,1.76l-.45,2.92-.07.51V25Z"/><path class="cls-3" d="M57.37,16.93h-.2c-.72,0-1.13.34-1.79,1.34l.2-1.27h-2l-1.33,8.24h2.12c.79-5,1-5.91,2-5.91h.13A9.14,9.14,0,0,1,57.5,17Z"/></svg>