<svg id="Слой_1" data-name="Слой 1" xmlns="http://www.w3.org/2000/svg" viewBox="0 0 51.6 70"><defs><style>.cls-1{fill:#44b7b4;}.cls-2{fill:#3a4d60;}</style></defs><title>32 гео DreamCity</title><circle class="cls-1" cx="25.8" cy="25.8" r="25.8"/><path class="cls-2" d="M46.48,25.91C46.48,37.33,25.8,70,25.8,70S5.12,37.3,5.12,25.91a20.68,20.68,0,1,1,41.36,0Z"/><path class="cls-1" d="M29.52,31.41a4.89,4.89,0,1,1-.58-6.89,5.29,5.29,0,0,1,.58.58h3.66a8,8,0,1,0,0,6.31Z"/><path class="cls-1" d="M35.41,11.85V28.26A9.64,9.64,0,1,1,33.83,23V18.34a12.77,12.77,0,1,0,4.73,10h0V14.19A18.92,18.92,0,0,0,35.41,11.85Z"/></svg>