<svg id="Layer_1" data-name="Layer 1" xmlns="http://www.w3.org/2000/svg" viewBox="0 0 141.24 28.63"><defs><style>.cls-1{fill:#fff;}</style></defs><title>Кнопка Дрим Сити-02</title><path class="cls-1" d="M12.83,5.48,7,2.91,2.2,13.78l-2.2-1L5.63,0,15.88,4.5,10.25,17.32l-2.19-1Z"/><path class="cls-1" d="M17.51,20.1a4.78,4.78,0,0,1-2.93-2.36,4.92,4.92,0,0,1,0-3.8l.21-.6a6.1,6.1,0,0,1,1-1.83,4.32,4.32,0,0,1,1.41-1.13A4.21,4.21,0,0,1,18.87,10a5.66,5.66,0,0,1,2,.33,4.76,4.76,0,0,1,2.92,2.36,4.83,4.83,0,0,1,0,3.8l-.2.6a6.12,6.12,0,0,1-1,1.83A4.19,4.19,0,0,1,21.25,20a4.29,4.29,0,0,1-1.75.42A6,6,0,0,1,17.51,20.1Zm.7-2.05A2.27,2.27,0,0,0,20.08,18a3,3,0,0,0,1.24-1.74l.2-.6a2.87,2.87,0,0,0,.07-2.13,2.29,2.29,0,0,0-1.42-1.19,2.23,2.23,0,0,0-1.87.06,2.91,2.91,0,0,0-1.24,1.73l-.21.6a2.92,2.92,0,0,0-.06,2.13A2.26,2.26,0,0,0,18.21,18.05Z"/><path class="cls-1" d="M33.08,17.13l-1.34,1.58L27.66,23l-2.82-.73,2.51-9.68,2.24.58L27.82,20l1.34-1.58,4.07-4.31,2.83.73-2.51,9.68L31.3,24Z"/><path class="cls-1" d="M40.91,26.18a5.48,5.48,0,0,1-1.86-.68,3.91,3.91,0,0,1-1.28-1.21,4.17,4.17,0,0,1-.65-1.67,5.8,5.8,0,0,1,0-2.07l.12-.63A5.82,5.82,0,0,1,38,18a4.12,4.12,0,0,1,2.85-2,5.39,5.39,0,0,1,2,0,4,4,0,0,1,3.62,4.09L44,19.64a1.68,1.68,0,0,0-.5-1,2.26,2.26,0,0,0-1.17-.56,2.43,2.43,0,0,0-.85,0,1.76,1.76,0,0,0-.76.35,2.42,2.42,0,0,0-.62.74,4.19,4.19,0,0,0-.39,1.18l-.11.63a3.65,3.65,0,0,0,0,1.22,2.5,2.5,0,0,0,.32.92,2,2,0,0,0,.59.6,2.15,2.15,0,0,0,.77.31,2,2,0,0,0,1.36-.14,2,2,0,0,0,.77-.82l2.44.45A4.36,4.36,0,0,1,44,25.77,4.2,4.2,0,0,1,40.91,26.18Z"/><path class="cls-1" d="M51.4,23.33l-1-.11-.47,4.15-2.31-.26,1.13-9.94,2.3.26-.42,3.76,1,.11,2.81-3.49,2.66.31-3.67,4.33,3,5.65-2.78-.32Z"/><path class="cls-1" d="M70.49,20.63l-4-.06-.13,8-2.32,0,.17-10,8.6.14-.17,10-2.32,0Z"/><path class="cls-1" d="M80.29,28.4a4.72,4.72,0,0,1-3.6-1,4.87,4.87,0,0,1-1.5-3.49l0-.64a5.93,5.93,0,0,1,.19-2.06,4,4,0,0,1,2.31-2.64,5.59,5.59,0,0,1,2-.46,4.76,4.76,0,0,1,3.61,1.05,4.85,4.85,0,0,1,1.5,3.49l0,.64a5.87,5.87,0,0,1-.2,2.05,4.08,4.08,0,0,1-.86,1.59,4.19,4.19,0,0,1-1.45,1.06A5.75,5.75,0,0,1,80.29,28.4Zm-.14-2.16a2.27,2.27,0,0,0,1.71-.77,3,3,0,0,0,.47-2.08l0-.63a2.87,2.87,0,0,0-.76-2,2.29,2.29,0,0,0-1.77-.56,2.23,2.23,0,0,0-1.7.78,2.89,2.89,0,0,0-.48,2.07l0,.64a2.87,2.87,0,0,0,.76,2A2.28,2.28,0,0,0,80.15,26.24Z"/><path class="cls-1" d="M96,22.18l-1,.17.71,4.12-2.29.39L91.74,17l2.29-.4.64,3.73,1-.17L97.38,16l2.64-.46-2.31,5.19,4.4,4.6-2.76.47Z"/><path class="cls-1" d="M106.63,24.48a3.44,3.44,0,0,1-2.58-.19,2.92,2.92,0,0,1-1.34-2,3.53,3.53,0,0,1-.09-1.43,2.46,2.46,0,0,1,.52-1.22,4.05,4.05,0,0,1,1.23-1,8.15,8.15,0,0,1,2-.72l1.63-.4-.14-.58a1.43,1.43,0,0,0-.64-1,1.84,1.84,0,0,0-1.34-.06,2,2,0,0,0-1.11.6,1.37,1.37,0,0,0-.25.93l-2.44.6a3.08,3.08,0,0,1,.53-2.41,4.71,4.71,0,0,1,2.82-1.58,4.26,4.26,0,0,1,3.13.18,3.19,3.19,0,0,1,1.55,2.16l1.61,6.6-1.76.43-.56-1.28a3.5,3.5,0,0,1-1,1.45A4.4,4.4,0,0,1,106.63,24.48Zm-.07-2a2.8,2.8,0,0,0,1-.43,2.54,2.54,0,0,0,.66-.69,2.78,2.78,0,0,0,.35-.86,2.2,2.2,0,0,0,0-.92l-.07-.29-1.63.39a2.71,2.71,0,0,0-1.54.79,1.31,1.31,0,0,0-.21,1.16,1.13,1.13,0,0,0,.52.76A1.24,1.24,0,0,0,106.56,22.52Z"/><path class="cls-1" d="M120,20.72a3.65,3.65,0,0,1-3.14-.23l1.53,4.76-2.2.71-4.3-13.32,1.73-.56.63,1.23a3.16,3.16,0,0,1,.91-1.51,4.32,4.32,0,0,1,1.66-.94,4.09,4.09,0,0,1,1.61-.19,3.33,3.33,0,0,1,1.47.49,4.51,4.51,0,0,1,1.25,1.19,6.87,6.87,0,0,1,.93,1.92l.2.61a7,7,0,0,1,.36,2.09,4.56,4.56,0,0,1-.33,1.7,3.42,3.42,0,0,1-.9,1.27A4,4,0,0,1,120,20.72Zm-1.33-1.84A2.14,2.14,0,0,0,120,17.77a3.06,3.06,0,0,0-.08-2.14l-.2-.61a2.94,2.94,0,0,0-1.2-1.76,2.09,2.09,0,0,0-1.74-.13,2.05,2.05,0,0,0-1.29,1.11,2.8,2.8,0,0,0,0,2l.23.72a2.89,2.89,0,0,0,1.22,1.72A2,2,0,0,0,118.65,18.88Z"/><path class="cls-1" d="M121.3,9.55l7.8-3.1.76,1.9L127,9.47l2.94,7.4-2.16.86-2.94-7.4-2.82,1.12Z"/><path class="cls-1" d="M138.37,13.37a5.19,5.19,0,0,1-1.89.53,4,4,0,0,1-3.26-1.21,5.68,5.68,0,0,1-1.17-1.7l-.28-.58a6.1,6.1,0,0,1-.57-2,4.05,4.05,0,0,1,1.13-3.29A5.26,5.26,0,0,1,133.94,4a4.49,4.49,0,0,1,3.68-.26,5.39,5.39,0,0,1,2.79,2.93l.33.7-6.4,3a2.67,2.67,0,0,0,1.41,1.34,2.37,2.37,0,0,0,1.75-.22,2.58,2.58,0,0,0,1.24-1A1.8,1.8,0,0,0,139,9.47l2.17-1a4.69,4.69,0,0,1,.1,1.39,3.27,3.27,0,0,1-.37,1.32,4.14,4.14,0,0,1-.93,1.21A5.92,5.92,0,0,1,138.37,13.37Zm-3.56-7.52A2.38,2.38,0,0,0,133.58,7a2.52,2.52,0,0,0,0,1.74l4.23-2a2.33,2.33,0,0,0-1.35-1.13A2.49,2.49,0,0,0,134.81,5.85Z"/></svg>