<svg xmlns="http://www.w3.org/2000/svg" xmlns:xlink="http://www.w3.org/1999/xlink"><defs><symbol viewBox="0 0 31.57 16.41" id="arrowBurger"><defs></defs><path d="M0 7.21H19.7V9.21H0z" /><path  d="M23.36 16.41L21.95 15 28.74 8.21 21.95 1.41 23.36 0 31.57 8.21 23.36 16.41z" /><path fill="currentColor" d="M22.06 7.21H23.91V9.21H22.06z" /></symbol><symbol viewBox="0 0 9.62 16.41" id="chevrone"><defs></defs><path  d="M1.41 16.41L0 15 6.79 8.21 0 1.41 1.41 0 9.62 8.21 1.41 16.41z" /><path  d="M0.11 7.21H1.9600000000000002V9.21H0.11z" /></symbol><symbol viewBox="0 0 12.5 12.5" id="clock"><defs></defs><path  d="M6.25,0A6.25,6.25,0,1,0,12.5,6.25,6.25,6.25,0,0,0,6.25,0ZM11,6.19A4.75,4.75,0,1,1,6.25,1.44,4.75,4.75,0,0,1,11,6.19Z" /><path  d="M7.03 3.23L5.53 3.23 5.53 6.54 7.93 8.84 8.96 7.76 7.03 5.9 7.03 3.23z" /></symbol><symbol viewBox="0 0 16.41 16.41" id="cls"><defs></defs><path  d="M16.41 1.41L15 0 8.21 6.79 1.41 0 0 1.41 6.79 8.21 0 15 1.41 16.41 8.21 9.62 15 16.41 16.41 15 9.62 8.21 16.41 1.41z" /></symbol><symbol viewBox="0 0 10 20" id="fb"><defs></defs><path  d="M6.25,6.88V4.38A1.25,1.25,0,0,1,7.48,3.13H8.75V0H6.25A3.75,3.75,0,0,0,2.5,3.75V6.88H0V10H2.5V20H6.25V10h2.5L10,6.88Z" /></symbol><symbol viewBox="0 0 70.03 80" id="footer-1"><defs></defs><path  d="M35,24.94a20.05,20.05,0,0,1,17,9.4H46.12a15.41,15.41,0,1,0,0,21.29H52A20,20,0,1,1,35,24.94m0-2A22,22,0,1,0,55.28,53.63H45.23a13.4,13.4,0,1,1,0-17.29H55.28A22.07,22.07,0,0,0,35,22.94Z" /><path  d="M63.38,3.64A50.81,50.81,0,0,1,68,7.26V45.12a33.06,33.06,0,1,1-13-26.34v6.15A28.35,28.35,0,1,0,63.38,45V3.64M61.38,0V45a26.39,26.39,0,1,1-4.32-14.45V17.81A35,35,0,1,0,70,45.13h0V6.36A52.5,52.5,0,0,0,61.38,0Z" /></symbol><symbol viewBox="0 0 75.3 79" id="footer-2"><defs></defs><path  d="M75.3 18.62a4 4 0 00-4-4H70.13a4 4 0 00-4 4V64.45h3.7l-3.28 5.09L70.72 76l4.16-6.45L71.6 64.45h3.7zM70.72 72.3l-1.79-2.76 1.79-2.77 1.78 2.77zm2.58-9.85H68.13V18.62a2 2 0 012-2H71.3a2 2 0 012 2zM0 0V79H60V10.79L48.86 0zM49.83 3.73L57 10.67H49.83zM2 77V2H47.83V12.67H58V77z" /><path  d="M10.96 27.14H49.01V29.14H10.96zM10.96 34.91H49.01V36.91H10.96zM10.96 42.69H49.01V44.69H10.96zM10.96 49.86H36.45V51.86H10.96zM10.96 13.39H36.45V15.39H10.96zM39.93 67.3H51.16V69.3H39.93z" /></symbol><symbol viewBox="0 0 62.78 79.52" id="footer-3"><defs></defs><path  d="M52.82,46.4a15.57,15.57,0,0,0,4.59-26.29,14.88,14.88,0,1,0-28.82-5.22,15,15,0,0,0,.56,4,14.87,14.87,0,0,0-3.58,2.61,14.56,14.56,0,0,0-2.13,17.91L0,62.87,4.53,67.4,8.1,63.83l2.69,2.68L14.7,62.6,12,59.92l1.28-1.28L16,61.33l3.91-3.91L17.2,54.73,27.9,44a14.59,14.59,0,0,0,12.23,1.75,15.21,15.21,0,0,0,2,.84V73.37l5,6.15,5.7-6.11v-4.6l-2.53-2.93,2.85-3.31-2.85-3.3,2.53-2.94ZM30.59,14.89a12.89,12.89,0,1,1,25.16,3.95,15.53,15.53,0,0,0-15.92-.75l.08-.28A14.64,14.64,0,0,0,31,18.1,13.2,13.2,0,0,1,30.59,14.89Zm-2.21,27-.69-.52L14.37,54.73l2.69,2.69L16,58.5l-2.69-2.69L9.18,59.92l2.69,2.68-1.08,1.09L8.1,61,4.53,64.57l-1.7-1.7L26,39.68,25.54,39A12.59,12.59,0,0,1,37.81,19.4a15.38,15.38,0,0,0-2.62,2.48,9.69,9.69,0,0,0-.54,19.26,16,16,0,0,0,3.08,3.13A12.64,12.64,0,0,1,28.38,41.93Zm5.2-17.72a15.48,15.48,0,0,0-.42,14.5A7.84,7.84,0,0,1,30.51,37a7.7,7.7,0,0,1,3.07-12.77ZM50.82,45V55.59l-3.18,3.68,2.86,3.3-2.86,3.31,3.18,3.68v3.06l-3.6,3.86-3.1-3.82V45.14l-.73-.21a13.61,13.61,0,0,1,3.78-26.68A13.52,13.52,0,0,1,55,20.72a12.9,12.9,0,0,1-3.85,4.54,5,5,0,1,0,1.11,3.13A5.19,5.19,0,0,0,52,27.07a15,15,0,0,0,4.52-5,13.58,13.58,0,0,1-5,22.73Zm-.6-16.59a3,3,0,0,1-5.77,1.35,14.86,14.86,0,0,0,5.75-1.57C50.2,28.24,50.22,28.31,50.22,28.39Zm-6-.64a3,3,0,0,1,5.22-1.42A12.8,12.8,0,0,1,44.19,27.75Z" /></symbol><symbol viewBox="0 0 79.91 79.31" id="footer-4"><defs></defs><path  d="M79.17 47.52A5.46 5.46 0 0075.82 45a5.53 5.53 0 00-4.19.55l-3.95 2.29V25.45h-2V48.94L55.12 55a5.45 5.45 0 00-3-2.09l-20-5.38a15.69 15.69 0 00-2.7-.45V25.45h-2V47.14a14.21 14.21 0 00-5.73 1.65l-7.29 3.94v-5H0V79.31H14.34V72.65l5 3a4.11 4.11 0 002.18.62H39.22a4.11 4.11 0 002.08-.56l35.85-20.7a5.52 5.52 0 002-7.54zM12.34 77.31H2V49.76H12.34zM77.79 51.19a3.46 3.46 0 01-1.64 2.14L40.3 74a2.16 2.16 0 01-1.08.29H21.5A2.21 2.21 0 0120.36 74l-5.64-3.46-.38.62V55l8.24-4.45a12.2 12.2 0 019-1L51.6 54.88a3.52 3.52 0 012.48 4.31 3.53 3.53 0 01-4.31 2.49L35 57.72l-.51 1.93 14.76 4a5.33 5.33 0 001.42.19 5.49 5.49 0 005.31-7l16.64-9.6a3.48 3.48 0 012.67-.36 3.54 3.54 0 012.14 1.64A3.47 3.47 0 0177.79 51.19zM47.52 2.61L74.35 25.15 75.64 23.62 47.52 0 19.4 23.62 20.68 25.15 47.52 2.61z" /><path  d="M49.41,34.26a7.56,7.56,0,1,0,0-15.12h-8v18h-2.3v2h2.3v6h2v-6h7.86v-2H43.37V34.26Zm-6-13.12h6a5.56,5.56,0,1,1,0,11.12h-6Z" /></symbol><symbol viewBox="0 0 11.41 17.09" id="geo-address"><defs></defs><path  d="M5.71,17.09l-.63-.92C4.56,15.4,0,8.59,0,5.71a5.71,5.71,0,1,1,11.41,0c0,2.88-4.56,9.69-5.08,10.46Zm0-15.59A4.22,4.22,0,0,0,1.5,5.71c0,1.78,2.64,6.24,4.21,8.68,1.57-2.44,4.2-6.9,4.2-8.68A4.21,4.21,0,0,0,5.71,1.5Z" /><path  d="M5.71,8.08A2.57,2.57,0,1,1,8.27,5.51,2.57,2.57,0,0,1,5.71,8.08Zm0-3.63A1.07,1.07,0,1,0,6.77,5.51,1.07,1.07,0,0,0,5.71,4.45Z" /></symbol><symbol viewBox="0 0 20 20" id="inst"><defs></defs><path  d="M17.07,0H2.92A2.92,2.92,0,0,0,0,2.92V17.07A2.94,2.94,0,0,0,2.92,20H17.07A2.93,2.93,0,0,0,20,17.07h0V2.92A2.94,2.94,0,0,0,17.07,0ZM10,15.24A5.28,5.28,0,1,1,15.31,10h0A5.28,5.28,0,0,1,10,15.24Zm5.86-9.38A1.76,1.76,0,1,1,17.63,4.1h0A1.76,1.76,0,0,1,15.9,5.86Z" /><path  d="M10,6.91a3.07,3.07,0,1,0,.05,0Z" /></symbol><symbol viewBox="0 0 62.48 64" id="ligntC"><defs></defs><path  d="M32,62A30,30,0,1,1,60.36,22.23h2.12a32,32,0,1,0-.16,20H60.2A30,30,0,0,1,32,62Z" /></symbol><symbol viewBox="0 0 15.53 22" id="marker"><defs></defs><path  d="M7.77,0A7.77,7.77,0,0,0,0,7.77c0,3.38,4.82,10.77,6.87,13.75a1.08,1.08,0,0,0,1.8,0c2-3,6.86-10.37,6.86-13.75A7.77,7.77,0,0,0,7.77,0Zm0,12.41a4.65,4.65,0,1,1,4.64-4.64A4.65,4.65,0,0,1,7.77,12.41Z" /></symbol><symbol viewBox="0 0 47.99 50" id="menuBurger"><defs></defs><path d="M11.4,34.8a15.2,15.2,0,1,0,0-19.6H0A25,25,0,1,1,0,34.8Z" /></symbol><symbol viewBox="0 0 18.11 18.11" id="pencil"><defs></defs><path  d="M0 18.11L1.47 12.46 13.93 0 18.11 4.18 16.21 6.08 15.15 5.02 15.99 4.18 13.93 2.12 2.82 13.24 2.09 16.01 4.87 15.29 12.74 7.42 13.8 8.48 5.64 16.64 0 18.11z" /></symbol><symbol viewBox="0 0 18.49 17.84" id="personal"><defs></defs><path  d="M11.91,10a5.3,5.3,0,0,0,2.72-4.61,5.39,5.39,0,0,0-10.77,0A5.31,5.31,0,0,0,6.57,10,9.29,9.29,0,0,0,0,17.66l1.49.18a7.83,7.83,0,0,1,15.51,0l1.49-.18A9.28,9.28,0,0,0,11.91,10ZM5.36,5.34A3.89,3.89,0,1,1,9.24,9.19,3.86,3.86,0,0,1,5.36,5.34Z" /></symbol><symbol viewBox="0 0 18 18" id="phone"><defs></defs><path  d="M16.56,11.81a10.13,10.13,0,0,1-3.21-.51,1.49,1.49,0,0,0-1.43.3l-2,1.53a11.13,11.13,0,0,1-5-5l1.48-2a1.47,1.47,0,0,0,.36-1.47,10.24,10.24,0,0,1-.52-3.22A1.44,1.44,0,0,0,4.75,0H1.44A1.45,1.45,0,0,0,0,1.44,16.58,16.58,0,0,0,16.56,18,1.45,1.45,0,0,0,18,16.56v-3.3A1.45,1.45,0,0,0,16.56,11.81Z" /></symbol><symbol viewBox="0 0 18 14" id="post"><defs></defs><path  d="M18 2L9 7.5 0 2 0 0 18 0 18 2z" /><path  d="M0 3.5L0 14 18 14 18 3.5 9 9 0 3.5z" /></symbol><symbol viewBox="0 0 22 21.71" id="search"><defs></defs><path  d="M22,20.29l-5-5a9.43,9.43,0,1,0-1.38,1.45l5,5ZM9.49,17A7.49,7.49,0,1,1,17,9.49,7.49,7.49,0,0,1,9.49,17Z" /></symbol><symbol viewBox="0 0 18.01 18" id="tel-small"><defs></defs><path  d="M16.84,18h0A16.84,16.84,0,0,1,0,1.17,1.16,1.16,0,0,1,1.19,0H4.6a1.19,1.19,0,0,1,.85.36,1.15,1.15,0,0,1,.32.83,11,11,0,0,0,.57,3.4,1.16,1.16,0,0,1-.29,1.2L3.24,8.16a15.35,15.35,0,0,0,7,6.81l1.94-3a1.22,1.22,0,0,1,1.19-.28,10.79,10.79,0,0,0,3.42.55h0A1.19,1.19,0,0,1,18,13.4v3.42a1.19,1.19,0,0,1-.36.85A1.18,1.18,0,0,1,16.84,18Zm0-1.54h0Zm-5.11-.88a15.26,15.26,0,0,0,4.75.87v-2.7a12.41,12.41,0,0,1-3.25-.53Zm4.75-2.19h0ZM1.55,1.54a15,15,0,0,0,1,5.16L4.8,4.84a12,12,0,0,1-.56-3.3Zm-.36,0h0Zm3-.36h0Z" /></symbol><symbol viewBox="0 0 20 11.72" id="vk"><defs></defs><path  d="M16.6,6.74c-.33-.41-.23-.59,0-1,0,0,2.67-3.7,2.94-4.95h0c.13-.45,0-.79-.66-.79H16.7a.94.94,0,0,0-.95.61,18.28,18.28,0,0,1-2.69,4.44c-.51.5-.74.66-1,.66s-.35-.16-.35-.61V.84c0-.55-.16-.79-.62-.79H7.63a.53.53,0,0,0-.55.49c0,.52.79.64.87,2.1V5.8c0,.7-.13.82-.41.82C6.8,6.62,5,4,3.93.89c-.22-.6-.43-.84-1-.84H.75C.13.05,0,.34,0,.66c0,.57.74,3.39,3.46,7.13a8.55,8.55,0,0,0,6.67,3.93c1.39,0,1.56-.31,1.56-.84,0-2.43-.12-2.66.57-2.66.33,0,.88.16,2.18,1.39,1.49,1.44,1.73,2.11,2.56,2.11h2.19c.62,0,.94-.31.76-.91C19.53,9.53,16.72,6.92,16.6,6.74Z" /></symbol><symbol viewBox="0 0 20 15.01" id="youtube"><defs></defs><path  d="M19.59,2.35A2.54,2.54,0,0,0,17.82.47,55.28,55.28,0,0,0,10,0,60.1,60.1,0,0,0,2.18.44,2.68,2.68,0,0,0,.41,2.35,30.75,30.75,0,0,0,0,7.5a30.58,30.58,0,0,0,.41,5.15,2.49,2.49,0,0,0,1.77,1.89A52.45,52.45,0,0,0,10,15a55.25,55.25,0,0,0,7.82-.43,2.55,2.55,0,0,0,1.77-1.89A30.93,30.93,0,0,0,20,7.5,29.73,29.73,0,0,0,19.59,2.35ZM8,10.72V4.29L13.2,7.5Z" /></symbol></defs></svg>