<svg id="Слой_1" data-name="Слой 1" xmlns="http://www.w3.org/2000/svg" viewBox="0 0 127.85 20"><defs><style>.cls-1{fill:#44b7b4;}.cls-2{fill:#3a4d60;}</style></defs><title>Лого адаптив</title><path class="cls-1" d="M11.3,13.41a3.35,3.35,0,1,1-.4-4.72,3,3,0,0,1,.4.4h2.51a5.51,5.51,0,1,0,0,4.32Z"/><path class="cls-2" d="M15.34,0V11.25a6.6,6.6,0,1,1-1.08-3.6V4.45a8.75,8.75,0,1,0,3.24,6.83h0V1.6A13.41,13.41,0,0,0,15.34,0Z"/><path class="cls-2" d="M26.67,5.21h2.55A4.9,4.9,0,0,1,33,6.61a4.69,4.69,0,0,1,1.35,3.33,4.81,4.81,0,0,1-4.61,5h-3l-2,.06a.78.78,0,0,1,0-.24c0-.13,0-.25,0-.25a2.62,2.62,0,0,0,.56-.09c.25-.07.39-.14.43-.23a5.63,5.63,0,0,0,.1-1.36V7.23a4.83,4.83,0,0,0-.1-1.2q0-.17-.42-.27a2.27,2.27,0,0,0-.58-.1s-.06-.07-.06-.22,0-.23.06-.27C25.36,5.2,26,5.21,26.67,5.21Zm.81,1.88v5.78a2.44,2.44,0,0,0,.16,1.1,3.8,3.8,0,0,0,1.8.23c2,0,3-1.44,3-4.3a4.79,4.79,0,0,0-.8-2.8A2.64,2.64,0,0,0,29.34,6h-.08q-1.41,0-1.59.24A1.58,1.58,0,0,0,27.48,7.09Z"/><path class="cls-2" d="M40.71,5.18a4.34,4.34,0,0,1,.8.08,4.1,4.1,0,0,1,.86.27,3.15,3.15,0,0,1,.81.48,2.14,2.14,0,0,1,.58.69,2.34,2.34,0,0,1,.21,1,2.47,2.47,0,0,1-.51,1.5,2.78,2.78,0,0,1-1.25,1c-.08,0-.1.08-.06.15a16.56,16.56,0,0,0,1.66,2.54A6.36,6.36,0,0,0,44.92,14a1.87,1.87,0,0,0,1.1.44.53.53,0,0,1,.06.24A.66.66,0,0,1,46,15h-.46a5.12,5.12,0,0,1-1.4-.18,3.18,3.18,0,0,1-1-.5,4.84,4.84,0,0,1-.74-.69,5.77,5.77,0,0,1-.6-.78c-.14-.19-.3-.42-.48-.7l-.4-.61c-.09-.14-.2-.29-.32-.45a2,2,0,0,0-.3-.35.81.81,0,0,0-.24-.17,1.11,1.11,0,0,0-.36,0,.23.23,0,0,0-.24.2v2.14a5.25,5.25,0,0,0,.12,1.25c0,.12.2.22.5.3a3.5,3.5,0,0,0,.66.1s0,.08,0,.25a.53.53,0,0,1,0,.25c-1.08-.05-1.78-.09-2.09-.09h-.89l-.82,0h-.29a.5.5,0,0,1-.05-.27c0-.15,0-.24.05-.24a2.62,2.62,0,0,0,.56-.09c.26-.06.4-.14.44-.23a5.4,5.4,0,0,0,.09-1.27V7.23A6,6,0,0,0,37.67,6c0-.08-.18-.16-.44-.25a1.81,1.81,0,0,0-.56-.12s-.06-.07-.06-.22,0-.24.06-.27l1.95,0h1A10.41,10.41,0,0,1,40.71,5.18Zm-.24.7a2.42,2.42,0,0,0-.85.1c-.12,0-.17.56-.19,1.54V9.21a.42.42,0,0,0,.26.43,1.81,1.81,0,0,0,.69.1h.39a1.24,1.24,0,0,0,1-.52,2,2,0,0,0,.43-1.29c0-1.34-.57-2-1.71-2Z"/><path class="cls-2" d="M50.22,5.22c.43,0,1.19,0,2.28,0s1.92,0,2.48,0a7.13,7.13,0,0,0,.24,1.23c.12.53.18.82.19.86a.43.43,0,0,1-.31.08c-.11,0-.18,0-.21-.1A1.86,1.86,0,0,0,53,5.89h-.77c-.69,0-1.09.07-1.11.19A5.58,5.58,0,0,0,51,7.23V9.55c0,.06.21.09.65.09h.82a3.9,3.9,0,0,0,1-.07c.1-.05.19-.23.25-.52a1.18,1.18,0,0,1,.09-.37c0-.1.09-.1.23-.1a.35.35,0,0,1,.28.07v2.8a.52.52,0,0,1-.28.05c-.12,0-.2,0-.23-.12a3.93,3.93,0,0,0-.19-.58.68.68,0,0,0-.1-.21l-.13-.09a4.39,4.39,0,0,0-1.35-.12c-.7,0-1.06,0-1.06.12v2.32a4.06,4.06,0,0,0,.13,1.2c.05.12.38.18,1,.18h.54a3.88,3.88,0,0,0,1.75-.3,1.55,1.55,0,0,0,.53-.52,3.07,3.07,0,0,0,.46-.9c0-.06.07-.08.21-.08a.66.66,0,0,1,.41.08,3.67,3.67,0,0,1-.22.61l-.25.69c-.06.17-.12.37-.19.61a3.39,3.39,0,0,0-.14.57l-2.43,0H50.23L48.28,15s-.05-.1-.05-.24,0-.25.05-.25a2.63,2.63,0,0,0,.55-.09c.25-.06.39-.14.43-.23a5,5,0,0,0,.13-1.34V7.23a4.4,4.4,0,0,0-.1-1.2c0-.11-.17-.2-.41-.27a2.09,2.09,0,0,0-.6-.1s-.05-.07-.05-.22a.42.42,0,0,1,.05-.27C48.9,5.2,49.56,5.22,50.22,5.22Z"/><path class="cls-2" d="M63.71,5.18l3.09,7.73c.16.39.3.74.45,1.07a.7.7,0,0,0,.47.35,1.83,1.83,0,0,0,.56.13.52.52,0,0,1,.06.27.41.41,0,0,1,0,.22l-1.86-.09L64.56,15a.43.43,0,0,1-.06-.27c0-.14,0-.22.06-.22a2,2,0,0,0,.49-.08c.21-.06.33-.13.37-.21a.41.41,0,0,0,0-.19,3.29,3.29,0,0,0-.28-1l-.51-1.4a.24.24,0,0,0-.11-.06H63.3c-.53,0-1.09,0-1.69,0,0,0-.08,0-.08.07L61,13a5.29,5.29,0,0,0-.28,1,.34.34,0,0,0,.17.3,1.57,1.57,0,0,0,.46.16,2.34,2.34,0,0,0,.45.07.42.42,0,0,1,.05.21,1.31,1.31,0,0,1,0,.28l-.7,0c-.41,0-.75,0-1,0a7.73,7.73,0,0,0-.91,0l-.74.05a.31.31,0,0,1-.06-.22v-.27a2.35,2.35,0,0,0,.57-.13.79.79,0,0,0,.49-.28A6.11,6.11,0,0,0,60,12.93L62.77,6.3a3,3,0,0,1,.54-1.06.36.36,0,0,1,.25-.11A.27.27,0,0,1,63.71,5.18ZM62,10.66c.34,0,.7.05,1.06.05a10.55,10.55,0,0,0,1.21-.05V10.6L63.11,7.65l-1.2,2.95S61.92,10.66,62,10.66Z"/><path class="cls-2" d="M72.93,5.24l1.44-.09c.09.28.3.79.61,1.53l1.15,2.71c.46,1.06.83,1.94,1.1,2.63h0s0,0,0,0h0c.86-2.1,1.55-3.78,2.09-5.12l.53-1.71c.3,0,.7,0,1.21,0a16.27,16.27,0,0,0,1.76-.08.61.61,0,0,1,0,.24c0,.16,0,.25-.06.25h0a1.17,1.17,0,0,0-.7.23C82,6,82,6.21,82,6.64c0,.88.1,2.91.21,6.09a4.22,4.22,0,0,0,.23,1.36.79.79,0,0,0,.42.24,1.71,1.71,0,0,0,.5.1s.06.1.06.27a.81.81,0,0,1,0,.22l-1.9-.06h-.63l-.69,0-.63,0a.32.32,0,0,1-.06-.23c0-.17,0-.26.06-.26a1.86,1.86,0,0,0,.47-.09.86.86,0,0,0,.41-.22.8.8,0,0,0,.16-.52v-.8l-.16-4.48c0-.61-.09-.91-.17-.91s-.06,0-.07.08l-2.79,6.88c-.17.37-.35.55-.56.55h-.15L73.41,7q-.1,3.68-.23,6.58a1.71,1.71,0,0,0,0,.45c0,.11.24.21.59.31a4,4,0,0,0,.69.15.5.5,0,0,1,.06.26.89.89,0,0,1,0,.23L72.7,14.9c-.26,0-.62,0-1,0l-.8.05a.31.31,0,0,1-.07-.24c0-.17,0-.25.07-.25a2.75,2.75,0,0,0,.69-.15c.34-.1.53-.22.58-.38a2.78,2.78,0,0,0,.16-1c0-.75,0-1.63.09-2.64s.06-1.89.08-2.6,0-1.17,0-1.34a1.46,1.46,0,0,0,0-.42c0-.08-.2-.15-.5-.22a3.31,3.31,0,0,0-.63-.1s-.06-.09-.06-.25a.32.32,0,0,1,.06-.23l.75.06C72.37,5.22,72.67,5.24,72.93,5.24Z"/><path class="cls-2" d="M98.9,12.23a9.21,9.21,0,0,1-.23,1.14,2.61,2.61,0,0,1-.33,1,8,8,0,0,1-3.42.61A4.42,4.42,0,0,1,91.6,13.6a4.79,4.79,0,0,1-1.4-3.41A5.11,5.11,0,0,1,91.6,6.6a4.57,4.57,0,0,1,3.45-1.5,16.46,16.46,0,0,1,3.49.4,3.94,3.94,0,0,1,.09,1c0,.63,0,1,0,1.18s-.12.23-.35.23a.58.58,0,0,1-.21-.07,2.09,2.09,0,0,0-.21-.54,4.15,4.15,0,0,0-.46-.64,2.4,2.4,0,0,0-.92-.58,4.1,4.1,0,0,0-1.39-.23A2.56,2.56,0,0,0,92.88,7a5.09,5.09,0,0,0-.81,2.86A5.3,5.3,0,0,0,93,13a2.94,2.94,0,0,0,2.56,1.3,2.69,2.69,0,0,0,2.09-.83,1.77,1.77,0,0,0,.35-.55c.11-.23.18-.43.24-.59a.88.88,0,0,1,.1-.23C98.67,12.12,98.86,12.12,98.9,12.23Z"/><path class="cls-2" d="M102.32,7.23A4.25,4.25,0,0,0,102.2,6c0-.09-.17-.16-.41-.23a1.62,1.62,0,0,0-.53-.11s-.06-.07-.06-.23a.57.57,0,0,1,0-.26l.82,0c.49,0,.88,0,1.14,0l1.89-.09a.86.86,0,0,1,0,.24c0,.16,0,.25,0,.25a2.48,2.48,0,0,0-.54.12c-.26.07-.41.15-.42.22A4.67,4.67,0,0,0,104,7.29v5.53a5.41,5.41,0,0,0,.13,1.33c0,.07.16.14.41.21a2.1,2.1,0,0,0,.51.11.7.7,0,0,1,0,.29.67.67,0,0,1,0,.2l-1.9-.1h-.62l-.7,0-.62,0a.26.26,0,0,1-.06-.21c0-.18,0-.28.06-.28a2.65,2.65,0,0,0,.55-.1c.25-.07.39-.15.42-.22a4.7,4.7,0,0,0,.11-1.24Z"/><path class="cls-2" d="M110.31,5.2c.7,0,1.21,0,1.62,0s1,0,1.65,0l1.6,0a5.73,5.73,0,0,0,1-.15l.28,2.26a.54.54,0,0,1-.39.1c-.08,0-.13,0-.15-.07a2.1,2.1,0,0,0-.55-1.1,1.6,1.6,0,0,0-1.06-.29c-.91,0-1.39.08-1.39.25a5.5,5.5,0,0,0-.14,1.4v5.32a5.15,5.15,0,0,0,.14,1.29c0,.06.14.13.39.21a3.21,3.21,0,0,0,.52.11s.06.09.06.26a1,1,0,0,1,0,.24l-.57,0-.7,0H112a9.71,9.71,0,0,0-1.1,0l-.86.05a.31.31,0,0,1-.06-.23c0-.18,0-.27.06-.27a2.54,2.54,0,0,0,.55-.1c.26-.07.4-.14.42-.22a4.18,4.18,0,0,0,.12-1.22V7.58A3.85,3.85,0,0,0,111,6.15c-.07-.17-.54-.25-1.4-.25a1.61,1.61,0,0,0-1.06.29A2.2,2.2,0,0,0,108,7.27c0,.06,0,.09-.14.09a.51.51,0,0,1-.39-.12L107.75,5a6,6,0,0,0,1,.15Z"/><path class="cls-2" d="M120.62,5.24c.18,0,.86,0,2-.09a.57.57,0,0,1,0,.26c0,.14,0,.21,0,.21a1.62,1.62,0,0,0-.53.11c-.2.07-.3.16-.3.3a1.06,1.06,0,0,0,.13.39l1.57,2.85a.08.08,0,0,0,.14,0c.43-.62.84-1.27,1.23-1.94a3.88,3.88,0,0,0,.59-1.27c0-.1-.09-.2-.27-.28a1.68,1.68,0,0,0-.7-.13s-.06-.07-.06-.21a.65.65,0,0,1,0-.27c1,.07,1.58.1,1.77.1h1.17l.45,0a1,1,0,0,1,0,.24c0,.16,0,.24-.06.24a1.8,1.8,0,0,0-.61.13,1.32,1.32,0,0,0-.57.36c-.28.42-.79,1.23-1.53,2.42a11,11,0,0,0-1.11,2v2.23a5.93,5.93,0,0,0,.12,1.33c0,.07.16.14.41.23a2,2,0,0,0,.49.12s.06.08.06.23a1,1,0,0,1,0,.24l-.57,0-.69,0h-.61a9.39,9.39,0,0,0-1.08,0l-.85.06a.41.41,0,0,1-.06-.24c0-.16,0-.23,0-.23a2.48,2.48,0,0,0,.54-.12c.25-.08.39-.16.41-.24a4.71,4.71,0,0,0,.12-1.3v-2.2a.71.71,0,0,0-.09-.28c-.07-.15-.17-.37-.33-.65L121.47,9l-.52-1c-.27-.46-.46-.81-.59-1a3.06,3.06,0,0,0-.76-1,1.85,1.85,0,0,0-.44-.18,2.07,2.07,0,0,0-.42-.08.22.22,0,0,1,0-.15.37.37,0,0,1,0-.21Z"/></svg>